<svg xmlns="http://www.w3.org/2000/svg" viewBox="0 0 512 512">
  <defs>
    <linearGradient id="bg" x1="0" y1="0" x2="0" y2="1">
      <stop offset="0%" stop-color="#2f2017" />
      <stop offset="100%" stop-color="#100b08" />
    </linearGradient>
    <radialGradient id="glow" cx="50%" cy="38%" r="42%">
      <stop offset="0%" stop-color="#f1c98c" stop-opacity=".26" />
      <stop offset="100%" stop-color="#f1c98c" stop-opacity="0" />
    </radialGradient>
    <linearGradient id="page" x1="0" y1="0" x2="0" y2="1">
      <stop offset="0%" stop-color="#fbf3e7" />
      <stop offset="100%" stop-color="#e7d5b6" />
    </linearGradient>
    <linearGradient id="cover" x1="0" y1="0" x2="0" y2="1">
      <stop offset="0%" stop-color="#2a1a12" />
      <stop offset="100%" stop-color="#18100c" />
    </linearGradient>
    <linearGradient id="spine" x1="0" y1="0" x2="0" y2="1">
      <stop offset="0%" stop-color="#ebcb97" />
      <stop offset="100%" stop-color="#bc8550" />
    </linearGradient>
    <linearGradient id="ribbon" x1="0" y1="0" x2="0" y2="1">
      <stop offset="0%" stop-color="#d8894f" />
      <stop offset="100%" stop-color="#9c4f27" />
    </linearGradient>
    <filter id="shadow" x="-20%" y="-20%" width="140%" height="160%">
      <feDropShadow dx="0" dy="18" stdDeviation="18" flood-color="#000000" flood-opacity=".28" />
    </filter>
  </defs>

  <rect width="512" height="512" rx="104" fill="url(#bg)" />
  <rect width="512" height="512" rx="104" fill="url(#glow)" />
  <rect x="28" y="28" width="456" height="456" rx="86" fill="none" stroke="rgba(255,244,228,.09)" stroke-width="4" />

  <g filter="url(#shadow)">
    <ellipse cx="256" cy="396" rx="158" ry="30" fill="#000000" opacity=".18" />

    <path d="M112 156C154 136 201 128 250 138V408C200 391 154 394 112 418Z" fill="url(#cover)" />
    <path d="M400 156C358 136 311 128 262 138V408C312 391 358 394 400 418Z" fill="url(#cover)" />

    <path d="M134 161C176 148 212 142 242 148V378C206 366 172 370 134 392Z" fill="url(#page)" />
    <path d="M378 161C336 148 300 142 270 148V378C306 366 340 370 378 392Z" fill="url(#page)" />

    <path d="M246 100H266V274L256 288L246 274Z" fill="url(#ribbon)" />
    <rect x="242" y="136" width="28" height="248" rx="14" fill="url(#spine)" />

    <g stroke="#b69267" stroke-width="6" stroke-linecap="round" opacity=".72">
      <line x1="158" y1="206" x2="226" y2="194" />
      <line x1="158" y1="244" x2="226" y2="234" />
      <line x1="158" y1="282" x2="226" y2="274" />
      <line x1="158" y1="320" x2="226" y2="314" />
      <line x1="354" y1="206" x2="286" y2="194" />
      <line x1="354" y1="244" x2="286" y2="234" />
      <line x1="354" y1="282" x2="286" y2="274" />
      <line x1="354" y1="320" x2="286" y2="314" />
    </g>
  </g>
</svg>
